<svg width="102" height="45" viewBox="0 0 102 45" fill="none" xmlns="http://www.w3.org/2000/svg">
<path d="M1.30203 43.772V40.61L19.344 22.94C20.9974 21.328 22.2374 19.9227 23.064 18.724C23.8907 17.484 24.4487 16.3267 24.738 15.252C25.0274 14.1773 25.172 13.1647 25.172 12.214C25.172 9.69267 24.304 7.70867 22.568 6.262C20.8734 4.81533 18.352 4.092 15.004 4.092C12.4414 4.092 10.168 4.48467 8.18403 5.27C6.24137 6.05533 4.56737 7.27467 3.16203 8.928L3.32706e-05 6.2C1.6947 4.216 3.8647 2.68667 6.51003 1.612C9.15537 0.537335 12.1107 1.3113e-06 15.376 1.3113e-06C18.3107 1.3113e-06 20.8527 0.475335 23.002 1.426C25.1514 2.33534 26.8047 3.67867 27.962 5.456C29.1607 7.23333 29.76 9.32067 29.76 11.718C29.76 13.1233 29.5534 14.508 29.14 15.872C28.768 17.236 28.0654 18.6827 27.032 20.212C26.04 21.7 24.5727 23.3947 22.63 25.296L6.07603 41.54L4.83603 39.804H31.744V43.772H1.30203ZM51.9783 44.144C48.5063 44.144 45.5096 43.648 42.9883 42.656C40.5083 41.664 38.5863 40.238 37.2223 38.378C35.8996 36.4767 35.2383 34.2447 35.2383 31.682C35.2383 29.202 35.879 27.094 37.1603 25.358C38.483 23.5807 40.3843 22.2167 42.8643 21.266C45.3856 20.3153 48.4236 19.84 51.9783 19.84C55.4916 19.84 58.509 20.3153 61.0303 21.266C63.5516 22.2167 65.4736 23.5807 66.7963 25.358C68.1603 27.094 68.8423 29.202 68.8423 31.682C68.8423 34.2447 68.1603 36.4767 66.7963 38.378C65.4323 40.238 63.4896 41.664 60.9683 42.656C58.447 43.648 55.4503 44.144 51.9783 44.144ZM51.9783 40.362C55.8223 40.362 58.819 39.5767 60.9683 38.006C63.159 36.4353 64.2543 34.3067 64.2543 31.62C64.2543 28.9333 63.159 26.8253 60.9683 25.296C58.819 23.7253 55.8223 22.94 51.9783 22.94C48.1343 22.94 45.1376 23.7253 42.9883 25.296C40.839 26.8253 39.7643 28.9333 39.7643 31.62C39.7643 34.3067 40.839 36.4353 42.9883 38.006C45.1376 39.5767 48.1343 40.362 51.9783 40.362ZM51.9783 22.382C48.7543 22.382 46.0056 21.948 43.7323 21.08C41.5003 20.212 39.785 18.972 38.5863 17.36C37.3876 15.7067 36.7883 13.7433 36.7883 11.47C36.7883 9.07267 37.4083 7.02667 38.6483 5.332C39.9296 3.596 41.707 2.27333 43.9803 1.364C46.2536 0.454668 48.9196 1.3113e-06 51.9783 1.3113e-06C55.037 1.3113e-06 57.703 0.454668 59.9763 1.364C62.291 2.27333 64.089 3.596 65.3703 5.332C66.6516 7.02667 67.2923 9.07267 67.2923 11.47C67.2923 13.7433 66.693 15.7067 65.4943 17.36C64.2956 18.972 62.539 20.212 60.2243 21.08C57.951 21.948 55.2023 22.382 51.9783 22.382ZM51.9783 19.406C55.3676 19.406 58.013 18.7033 59.9143 17.298C61.8156 15.8927 62.7663 14.012 62.7663 11.656C62.7663 9.176 61.7743 7.254 59.7903 5.89C57.8476 4.48467 55.2436 3.782 51.9783 3.782C48.713 3.782 46.109 4.48467 44.1663 5.89C42.2236 7.254 41.2523 9.15534 41.2523 11.594C41.2523 13.9913 42.1823 15.8927 44.0423 17.298C45.9436 18.7033 48.589 19.406 51.9783 19.406Z" fill="white"/>
<path d="M85.8114 35.216V8.928H89.7174V35.216H85.8114ZM74.2794 23.932V20.274H101.249V23.932H74.2794Z" fill="url(#paint0_linear_9_57)"/>
<defs>
<linearGradient id="paint0_linear_9_57" x1="161.751" y1="22.2795" x2="50.7813" y2="31.9513" gradientUnits="userSpaceOnUse">
<stop stop-color="#237249"/>
<stop offset="1" stop-color="#35C66B"/>
</linearGradient>
</defs>
</svg>
