<svg width="99" height="46" viewBox="0 0 99 46" fill="none" xmlns="http://www.w3.org/2000/svg">
<path d="M1.30203 46.004V42.842L19.344 25.172C20.9974 23.56 22.2374 22.1547 23.064 20.956C23.8907 19.716 24.4487 18.5587 24.738 17.484C25.0274 16.4093 25.172 15.3967 25.172 14.446C25.172 11.9247 24.304 9.94066 22.568 8.494C20.8734 7.04733 18.352 6.32399 15.004 6.32399C12.4414 6.32399 10.168 6.71666 8.18403 7.50199C6.24137 8.28733 4.56737 9.50666 3.16203 11.16L3.32706e-05 8.432C1.6947 6.448 3.8647 4.91866 6.51003 3.844C9.15537 2.76933 12.1107 2.232 15.376 2.232C18.3107 2.232 20.8527 2.70733 23.002 3.658C25.1514 4.56733 26.8047 5.91066 27.962 7.688C29.1607 9.46533 29.76 11.5527 29.76 13.95C29.76 15.3553 29.5534 16.74 29.14 18.104C28.768 19.468 28.0654 20.9147 27.032 22.444C26.04 23.932 24.5727 25.6267 22.63 27.528L6.07603 43.772L4.83603 42.036H31.744V46.004H1.30203ZM41.8723 37.572L41.9963 31.93L62.2703 13.454H67.6643L53.3423 27.156L50.8623 29.264L41.8723 37.572ZM38.4003 46.004V-4.88758e-06H42.8023V46.004H38.4003ZM63.6343 46.004L50.0563 29.078L52.9083 25.668L69.0283 46.004H63.6343Z" fill="white"/>
<path d="M83.5106 37.448V11.16H87.4166V37.448H83.5106ZM71.9786 26.164V22.506H98.9486V26.164H71.9786Z" fill="url(#paint0_linear_9_54)"/>
<defs>
<linearGradient id="paint0_linear_9_54" x1="158.707" y1="24.5115" x2="49.7809" y2="33.8277" gradientUnits="userSpaceOnUse">
<stop offset="0.476257" stop-color="#237249"/>
<stop offset="1" stop-color="#35C66B"/>
</linearGradient>
</defs>
</svg>
