<svg width="101" height="47" viewBox="0 0 101 47" fill="none" xmlns="http://www.w3.org/2000/svg">
<path d="M14.818 2.232C18.662 2.232 21.9067 3.1 24.552 4.836C27.1973 6.53066 29.202 8.99 30.566 12.214C31.93 15.438 32.612 19.344 32.612 23.932C32.612 28.8093 31.7647 32.922 30.07 36.27C28.4167 39.618 26.102 42.1393 23.126 43.834C20.15 45.5287 16.6987 46.376 12.772 46.376C10.8293 46.376 8.96934 46.19 7.192 45.818C5.456 45.446 3.88534 44.8467 2.48 44.02L4.278 40.424C5.394 41.168 6.67534 41.7053 8.122 42.036C9.61 42.3253 11.1393 42.47 12.71 42.47C17.3807 42.47 21.1007 40.982 23.87 38.006C26.6807 35.03 28.086 30.5867 28.086 24.676C28.086 23.7253 28.024 22.5887 27.9 21.266C27.8173 19.9433 27.59 18.6207 27.218 17.298L28.768 18.476C28.3547 20.6253 27.466 22.4647 26.102 23.994C24.7793 25.482 23.126 26.6187 21.142 27.404C19.1993 28.1893 17.0293 28.582 14.632 28.582C11.78 28.582 9.238 28.0447 7.006 26.97C4.81534 25.8953 3.1 24.3867 1.86 22.444C0.620003 20.5013 3.01376e-06 18.2073 3.01376e-06 15.562C3.01376e-06 12.834 0.64067 10.478 1.922 8.494C3.20334 6.51 4.96 4.98066 7.192 3.906C9.46534 2.79 12.0073 2.232 14.818 2.232ZM15.004 6.014C12.9373 6.014 11.098 6.40666 9.486 7.19199C7.91534 7.936 6.67534 9.01066 5.766 10.416C4.85667 11.8213 4.402 13.4953 4.402 15.438C4.402 18.29 5.37334 20.5633 7.316 22.258C9.3 23.9527 11.966 24.8 15.314 24.8C17.546 24.8 19.4887 24.3867 21.142 23.56C22.8367 22.7333 24.1387 21.5967 25.048 20.15C25.9987 18.7033 26.474 17.0913 26.474 15.314C26.474 13.702 26.04 12.1933 25.172 10.788C24.304 9.38266 23.0227 8.24599 21.328 7.378C19.6333 6.46866 17.5253 6.014 15.004 6.014ZM43.6093 37.572L43.7333 31.93L64.0073 13.454H69.4013L55.0793 27.156L52.5993 29.264L43.6093 37.572ZM40.1373 46.004V-4.88758e-06H44.5393V46.004H40.1373ZM65.3713 46.004L51.7933 29.078L54.6453 25.668L70.7653 46.004H65.3713Z" fill="white"/>
<path d="M85.2476 37.448V11.16H89.1536V37.448H85.2476ZM73.7156 26.164V22.506H100.686V26.164H73.7156Z" fill="url(#paint0_linear_9_49)"/>
<defs>
<linearGradient id="paint0_linear_9_49" x1="160.945" y1="24.5115" x2="49.9753" y2="34.1833" gradientUnits="userSpaceOnUse">
<stop stop-color="#237249"/>
<stop offset="1" stop-color="#35C66B"/>
</linearGradient>
</defs>
</svg>
