<svg width="809" height="677" viewBox="0 0 809 677" fill="none" xmlns="http://www.w3.org/2000/svg">
<path d="M0.368042 624L138.947 538.327C177.343 514.589 196.042 468.793 185.233 424.965L177.974 395.53C166.243 347.962 189.303 298.657 233.331 277.167L249.849 269.104C271.823 258.379 289.316 240.254 299.254 217.913L313.182 186.602C332.663 142.809 379.55 118.002 426.715 126.532L557.96 150.27C603.041 158.424 648.149 136.118 669.034 95.3421L682.142 69.7505C703.293 28.4558 749.239 6.16604 794.764 15.1141L862.868 28.5" stroke="#D9D9D9" stroke-width="1.4" stroke-linejoin="round"/>
<path d="M24.368 650L162.947 564.327C201.343 540.589 220.042 494.793 209.233 450.965L201.974 421.53C190.243 373.962 213.303 324.657 257.331 303.167L273.849 295.104C295.823 284.379 313.316 266.254 323.254 243.913L337.182 212.602C356.663 168.809 403.55 144.002 450.715 152.532L581.96 176.27C627.041 184.424 672.149 162.118 693.034 121.342L706.142 95.7505C727.293 54.4558 773.239 32.166 818.764 41.1141L886.868 54.5" stroke="#D9D9D9" stroke-width="1.4" stroke-linejoin="round"/>
<path d="M48.368 676L186.947 590.327C225.343 566.589 244.042 520.793 233.233 476.965L225.974 447.53C214.243 399.962 237.303 350.657 281.331 329.167L297.849 321.104C319.823 310.379 337.316 292.254 347.254 269.913L361.182 238.602C380.663 194.809 427.55 170.002 474.715 178.532L605.96 202.27C651.041 210.424 696.149 188.118 717.034 147.342L730.142 121.75C751.293 80.4558 797.239 58.166 842.764 67.1141L910.868 80.5" stroke="#D9D9D9" stroke-width="1.4" stroke-linejoin="round"/>
</svg>
