<svg width="194" height="29" viewBox="0 0 194 29" fill="none" xmlns="http://www.w3.org/2000/svg">
<path d="M11.0919 28.4253C8.93616 28.4253 6.85565 28.1621 4.85033 27.6357C2.87009 27.0843 1.2533 26.3824 -1.92392e-05 25.5301L2.44396 20.0406C3.62208 20.7926 4.97567 21.4193 6.50472 21.9206C8.05884 22.3968 9.60042 22.635 11.1295 22.635C12.1572 22.635 12.9844 22.5472 13.6111 22.3718C14.2377 22.1712 14.6889 21.9206 14.9646 21.6198C15.2654 21.2939 15.4158 20.9179 15.4158 20.4918C15.4158 19.8902 15.1401 19.4139 14.5886 19.063C14.0372 18.7121 13.3228 18.4238 12.4455 18.1982C11.5681 17.9726 10.5905 17.747 9.51269 17.5214C8.4599 17.2958 7.39458 17.0076 6.31672 16.6566C5.26393 16.3057 4.29887 15.8545 3.42155 15.303C2.54422 14.7265 1.82983 13.9871 1.27837 13.0847C0.726907 12.1572 0.451176 10.9916 0.451176 9.5879C0.451176 8.00871 0.877306 6.57993 1.72956 5.30154C2.60689 4.02315 3.91034 2.99543 5.63993 2.21837C7.36951 1.44131 9.52522 1.05278 12.1071 1.05278C13.8367 1.05278 15.5286 1.25331 17.183 1.65437C18.8625 2.03037 20.3539 2.59436 21.6574 3.34636L19.3638 8.8735C18.1105 8.19671 16.8697 7.69538 15.6414 7.36952C14.4132 7.01859 13.2225 6.84313 12.0695 6.84313C11.0417 6.84313 10.2146 6.95592 9.58789 7.18152C8.96123 7.38205 8.51003 7.65778 8.2343 8.00871C7.95857 8.35964 7.82071 8.76071 7.82071 9.2119C7.82071 9.78843 8.0839 10.2522 8.6103 10.6031C9.16176 10.929 9.87615 11.2047 10.7535 11.4303C11.6559 11.6308 12.6335 11.8439 13.6863 12.0695C14.7641 12.2951 15.8294 12.5833 16.8822 12.9343C17.9601 13.2601 18.9377 13.7113 19.815 14.2879C20.6923 14.8393 21.3942 15.5788 21.9206 16.5062C22.472 17.4086 22.7478 18.5491 22.7478 19.9278C22.7478 21.4569 22.3091 22.8731 21.4318 24.1766C20.5795 25.4549 19.2886 26.4827 17.559 27.2597C15.8545 28.0368 13.6988 28.4253 11.0919 28.4253ZM33.8194 28.2373C31.2125 28.2373 29.1821 27.5981 27.7283 26.3197C26.2744 25.0163 25.5475 23.0611 25.5475 20.4542V2.97036H32.6914V20.379C32.6914 21.1059 32.8919 21.6825 33.293 22.1086C33.6941 22.5096 34.2079 22.7102 34.8346 22.7102C35.6868 22.7102 36.4138 22.4971 37.0154 22.071L38.7825 27.0717C38.181 27.4728 37.4415 27.7611 36.5642 27.9365C35.6868 28.1371 34.7719 28.2373 33.8194 28.2373ZM22.5771 13.6111V8.27191H37.3538V13.6111H22.5771ZM52.8548 27.8989V24.1014L52.366 23.1614V16.1678C52.366 15.0398 52.0151 14.1751 51.3132 13.5735C50.6364 12.9468 49.546 12.6335 48.042 12.6335C47.0645 12.6335 46.0743 12.7964 45.0717 13.1223C44.069 13.4231 43.2168 13.8492 42.5149 14.4007L40.1085 9.5503C41.2616 8.79831 42.6402 8.22178 44.2445 7.82071C45.8738 7.39459 47.4906 7.18152 49.0948 7.18152C52.4036 7.18152 54.9604 7.94605 56.7652 9.4751C58.595 10.9791 59.5099 13.3479 59.5099 16.5814V27.8989H52.8548ZM46.8389 28.2373C45.2095 28.2373 43.8309 27.9616 42.7029 27.4101C41.5749 26.8587 40.7101 26.1067 40.1085 25.1542C39.532 24.2016 39.2437 23.1363 39.2437 21.9582C39.2437 20.7049 39.5571 19.627 40.1837 18.7246C40.8354 17.7972 41.8256 17.0953 43.1541 16.619C44.4826 16.1177 46.1997 15.867 48.3052 15.867H53.118V19.5894H49.2828C48.1298 19.5894 47.3151 19.7774 46.8389 20.1534C46.3877 20.5294 46.1621 21.0307 46.1621 21.6574C46.1621 22.284 46.4002 22.7854 46.8765 23.1614C47.3527 23.5374 48.0044 23.7254 48.8316 23.7254C49.6087 23.7254 50.3106 23.5374 50.9372 23.1614C51.5889 22.7603 52.0652 22.1587 52.366 21.3566L53.3436 23.9886C52.9676 25.3923 52.2281 26.4576 51.1252 27.1845C50.0474 27.8864 48.6186 28.2373 46.8389 28.2373ZM62.8913 27.8989V7.51992H69.6968V13.4607L68.6816 11.7687C69.2832 10.2396 70.2608 9.0991 71.6144 8.34711C72.968 7.57005 74.6098 7.18152 76.5399 7.18152V13.6111C76.2141 13.5609 75.9258 13.5359 75.6751 13.5359C75.4495 13.5108 75.1989 13.4983 74.9231 13.4983C73.4693 13.4983 72.2912 13.8993 71.3888 14.7015C70.4864 15.4785 70.0352 16.7569 70.0352 18.5366V27.8989H62.8913ZM78.6617 27.8989V1.57917H92.1223C95.5815 1.57917 98.1634 2.21837 99.8679 3.49676C101.572 4.75008 102.425 6.40446 102.425 8.45991C102.425 9.8135 102.061 11.0042 101.334 12.0319C100.632 13.0345 99.6297 13.8367 98.3263 14.4383C97.0479 15.0148 95.5188 15.303 93.7391 15.303L94.4911 13.4983C96.346 13.4983 97.9628 13.7865 99.3415 14.3631C100.72 14.9145 101.785 15.7292 102.537 16.807C103.315 17.8598 103.703 19.1507 103.703 20.6798C103.703 22.9608 102.776 24.7406 100.921 26.0189C99.0908 27.2723 96.4087 27.8989 92.8743 27.8989H78.6617ZM86.0312 22.5222H92.2727C93.5511 22.5222 94.5162 22.3091 95.1679 21.883C95.8447 21.4318 96.1831 20.755 96.1831 19.8526C96.1831 18.9502 95.8447 18.2859 95.1679 17.8598C94.5162 17.4086 93.5511 17.183 92.2727 17.183H85.5048V12.0319H91.1448C92.3981 12.0319 93.3381 11.8188 93.9647 11.3927C94.5914 10.9666 94.9047 10.3274 94.9047 9.4751C94.9047 8.62284 94.5914 7.99618 93.9647 7.59512C93.3381 7.16899 92.3981 6.95592 91.1448 6.95592H86.0312V22.5222ZM114.665 28.2373C113.011 28.2373 111.52 27.9115 110.191 27.2597C108.888 26.608 107.86 25.5928 107.108 24.2142C106.381 22.8104 106.017 21.0433 106.017 18.9126V7.51992H113.161V17.747C113.161 19.3262 113.45 20.4542 114.026 21.131C114.628 21.8078 115.468 22.1462 116.545 22.1462C117.247 22.1462 117.886 21.9832 118.463 21.6574C119.039 21.3315 119.503 20.8177 119.854 20.1158C120.205 19.3889 120.381 18.4614 120.381 17.3334V7.51992H127.524V27.8989H120.719V22.1462L122.035 23.763C121.333 25.267 120.318 26.3949 118.989 27.1469C117.661 27.8739 116.22 28.2373 114.665 28.2373ZM141.413 28.2373C139.157 28.2373 137.139 27.7861 135.36 26.8837C133.605 25.9813 132.226 24.7406 131.224 23.1614C130.221 21.5571 129.72 19.7273 129.72 17.6718C129.72 15.6164 130.221 13.7991 131.224 12.2199C132.226 10.6407 133.605 9.41243 135.36 8.53511C137.139 7.63272 139.157 7.18152 141.413 7.18152C143.719 7.18152 145.712 7.67032 147.391 8.64791C149.071 9.6255 150.262 11.0042 150.963 12.7839L145.436 15.6038C144.96 14.6513 144.371 13.962 143.669 13.5359C142.967 13.0847 142.203 12.8591 141.376 12.8591C140.548 12.8591 139.796 13.0471 139.12 13.4231C138.443 13.7991 137.904 14.3505 137.503 15.0774C137.127 15.7793 136.939 16.6441 136.939 17.6718C136.939 18.7246 137.127 19.6145 137.503 20.3414C137.904 21.0683 138.443 21.6198 139.12 21.9958C139.796 22.3718 140.548 22.5598 141.376 22.5598C142.203 22.5598 142.967 22.3467 143.669 21.9206C144.371 21.4694 144.96 20.7675 145.436 19.815L150.963 22.635C150.262 24.4147 149.071 25.7933 147.391 26.7709C145.712 27.7485 143.719 28.2373 141.413 28.2373ZM158.393 24.139L158.581 15.6038L166.89 7.51992H175.35L166.138 17.0326L162.491 19.9654L158.393 24.139ZM152.452 27.8989V-1.14811e-05H159.596V27.8989H152.452ZM167.417 27.8989L161.175 20.0782L165.612 14.5887L176.064 27.8989H167.417ZM183.81 28.2373C182.08 28.2373 180.388 28.0368 178.734 27.6357C177.104 27.2347 175.788 26.7333 174.786 26.1317L176.929 21.2438C177.881 21.8203 178.997 22.284 180.275 22.635C181.554 22.9608 182.807 23.1238 184.035 23.1238C185.238 23.1238 186.066 22.9984 186.517 22.7478C186.993 22.4971 187.231 22.1587 187.231 21.7326C187.231 21.3315 187.006 21.0433 186.554 20.8678C186.128 20.6673 185.552 20.5169 184.825 20.4166C184.123 20.3163 183.346 20.2035 182.494 20.0782C181.641 19.9529 180.777 19.7899 179.899 19.5894C179.047 19.3638 178.257 19.0379 177.531 18.6118C176.829 18.1606 176.265 17.559 175.839 16.807C175.412 16.055 175.199 15.1025 175.199 13.9495C175.199 12.646 175.575 11.4929 176.327 10.4903C177.104 9.46257 178.232 8.66044 179.711 8.08391C181.19 7.48232 182.995 7.18152 185.126 7.18152C186.554 7.18152 187.996 7.33192 189.45 7.63272C190.929 7.90845 192.169 8.33458 193.172 8.91111L191.029 13.7615C190.026 13.1849 189.023 12.7964 188.021 12.5959C187.018 12.3703 186.066 12.2575 185.163 12.2575C183.96 12.2575 183.108 12.3953 182.606 12.6711C182.13 12.9468 181.892 13.2852 181.892 13.6863C181.892 14.0873 182.105 14.4007 182.531 14.6263C182.957 14.8268 183.521 14.9897 184.223 15.115C184.95 15.2153 185.74 15.3281 186.592 15.4534C187.444 15.5537 188.297 15.7166 189.149 15.9422C190.026 16.1678 190.816 16.5062 191.518 16.9574C192.245 17.3836 192.821 17.9726 193.247 18.7246C193.673 19.4515 193.886 20.3915 193.886 21.5446C193.886 22.7979 193.498 23.9259 192.721 24.9286C191.969 25.9312 190.841 26.7333 189.337 27.3349C187.858 27.9365 186.016 28.2373 183.81 28.2373Z" fill="url(#paint0_linear_8_29)"/>
<defs>
<linearGradient id="paint0_linear_8_29" x1="194.21" y1="6.41345" x2="53.3795" y2="83.2194" gradientUnits="userSpaceOnUse">
<stop stop-color="#237249"/>
<stop offset="1" stop-color="#35C66B"/>
</linearGradient>
</defs>
</svg>
